<svg width="48" height="48" viewBox="0 0 48 48" fill="none" xmlns="http://www.w3.org/2000/svg">
<path d="M13.9199 30H35.1771M13.5771 26H35.52M36.2509 17.4734L34.6504 36.1467C34.4734 38.212 34.3848 39.2444 33.9258 40.0258C33.5216 40.7139 32.9216 41.2654 32.2014 41.6094C31.3837 41.9999 30.3473 42 28.2744 42H20.8242C18.7513 42 17.7142 41.9999 16.8965 41.6094C16.1764 41.2654 15.576 40.7139 15.1718 40.0258C14.7128 39.2444 14.6243 38.212 14.4472 36.1467L12.8467 17.4734C12.7434 16.2681 12.6918 15.6652 12.8946 15.2002C13.0729 14.7916 13.3826 14.4544 13.7744 14.2419C14.2204 14 14.8254 14 16.0352 14H33.0631C34.2729 14 34.8781 14 35.3241 14.2419C35.716 14.4544 36.0249 14.7916 36.2031 15.2002C36.406 15.6652 36.3543 16.2681 36.2509 17.4734ZM35.0433 14H14.0547C12.2515 14 11.3499 13.9999 10.8262 13.6226C10.3644 13.2898 10.0665 12.7761 10.0067 12.2101C9.93889 11.5682 10.3866 10.7854 11.2812 9.21978C11.9496 8.05016 12.2838 7.46535 12.7528 7.03931C13.172 6.65842 13.6673 6.37089 14.206 6.19582C14.8086 6 15.482 6 16.8291 6H32.2696C33.6167 6 34.2902 6 34.8928 6.19582C35.4315 6.37089 35.9264 6.65842 36.3457 7.03931C36.8147 7.46535 37.1489 8.05016 37.8172 9.21978C38.7119 10.7854 39.1593 11.5682 39.0915 12.2101C39.0317 12.7761 38.7343 13.2898 38.2725 13.6226C37.7488 13.9999 36.8466 14 35.0433 14Z" stroke="#FF7500" stroke-width="2" stroke-linecap="round" stroke-linejoin="round"/>
</svg>
