<svg width="19" height="18" viewBox="0 0 19 18" fill="none" xmlns="http://www.w3.org/2000/svg">
<path d="M14.5675 10.9902C14.3326 11.2179 14.2246 11.5471 14.2781 11.8701L15.0846 16.3331C15.1526 16.7114 14.9929 17.0942 14.6764 17.3128C14.3661 17.5396 13.9534 17.5668 13.615 17.3854L9.59736 15.2899C9.45766 15.2156 9.30254 15.1757 9.14379 15.1711H8.89796C8.81269 15.1838 8.72924 15.211 8.65304 15.2528L4.63447 17.3582C4.43581 17.458 4.21084 17.4934 3.99041 17.458C3.45339 17.3564 3.09508 16.8448 3.18307 16.305L3.99041 11.842C4.04393 11.5163 3.93598 11.1852 3.70104 10.9539L0.425407 7.77895C0.151455 7.51316 0.0562067 7.11402 0.18139 6.75389C0.302945 6.39467 0.613182 6.13251 0.987825 6.07355L5.49624 5.41951C5.83913 5.38413 6.1403 5.1755 6.29451 4.86707L8.28112 0.794077C8.32829 0.703365 8.38907 0.619909 8.46254 0.549153L8.54418 0.485655C8.58682 0.438484 8.6358 0.399478 8.69023 0.367728L8.78911 0.331443L8.94332 0.267944H9.32522C9.6663 0.303322 9.96656 0.507426 10.1235 0.81222L12.1364 4.86707C12.2815 5.1637 12.5637 5.36962 12.8893 5.41951L17.3977 6.07355C17.7787 6.12798 18.0971 6.39104 18.2232 6.75389C18.3421 7.11765 18.2395 7.51679 17.9602 7.77895L14.5675 10.9902Z" fill="#DE8F32"/>
</svg>
