<svg width="22" height="22" viewBox="0 0 22 22" fill="none" xmlns="http://www.w3.org/2000/svg">
<path fill-rule="evenodd" clip-rule="evenodd" d="M22 11C22 4.92534 17.0747 0 11 0C4.92534 0 0 4.92534 0 11C0 16.49 4.02198 21.0409 9.28143 21.8671V14.1805H6.4877V11H9.28143V8.576C9.28143 5.8194 10.9242 4.2957 13.4364 4.2957C14.6398 4.2957 15.8991 4.51071 15.8991 4.51071V7.21783H14.5114C13.1456 7.21783 12.7186 8.06553 12.7186 8.93641V10.9999H15.769L15.2818 14.1804H12.7185V21.867C17.978 21.0424 21.9999 16.4914 21.9999 10.9999L22 11Z" fill="white"/>
</svg>
