<svg width="26" height="22" viewBox="0 0 26 22" fill="none" xmlns="http://www.w3.org/2000/svg">
<path d="M22.7354 5.53118C22.7504 5.7652 22.7504 5.99922 22.7504 6.23539C22.7504 13.4318 17.6562 21.7314 8.34109 21.7314V21.7271C5.58939 21.7314 2.89485 20.8838 0.578369 19.2855C0.978489 19.3373 1.38061 19.3632 1.78374 19.3642C4.06412 19.3664 6.27932 18.5436 8.07334 17.0284C5.90628 16.9841 4.00596 15.4646 3.3421 13.2463C4.10123 13.4037 4.88342 13.3714 5.6285 13.1525C3.26589 12.6391 1.56613 10.4068 1.56613 7.81422C1.56613 7.79049 1.56613 7.76785 1.56613 7.7452C2.2701 8.16687 3.05831 8.40089 3.86457 8.42677C1.63934 6.82745 0.953419 3.64392 2.29718 1.1549C4.86837 4.55735 8.66199 6.62579 12.7344 6.84471C12.3262 4.95314 12.8838 2.97098 14.1995 1.64127C16.2392 -0.420694 19.4472 -0.315007 21.3645 1.87745C22.4987 1.63696 23.5858 1.18941 24.5805 0.555288C24.2025 1.81598 23.4113 2.88686 22.3543 3.56735C23.3581 3.4401 24.3389 3.15108 25.2624 2.71C24.5825 3.80569 23.7261 4.7601 22.7354 5.53118Z" fill="white"/>
</svg>
