<svg width="30" height="22" viewBox="0 0 30 22" fill="none" xmlns="http://www.w3.org/2000/svg">
<path d="M15.8307 21.4942L9.74721 21.3801C7.77751 21.3403 5.80291 21.4197 3.87183 21.0076C0.934219 20.3919 0.726108 17.3731 0.508342 14.8409C0.208282 11.2809 0.324444 7.65625 0.890695 4.12597C1.21036 2.14512 2.46838 0.963127 4.41387 0.834504C10.9813 0.367711 17.5924 0.423031 24.1453 0.640806C24.8374 0.660771 25.5342 0.769887 26.2166 0.89409C29.5852 1.49987 29.6673 4.92088 29.8857 7.80072C30.1034 10.7103 30.0115 13.6348 29.5953 16.5245C29.2613 18.9172 28.6224 20.9236 25.9262 21.1173C22.548 21.3706 19.2474 21.5745 15.8597 21.5096C15.8598 21.4942 15.8403 21.4942 15.8307 21.4942ZM12.2542 15.4367C14.7999 13.9371 17.2971 12.4626 19.8283 10.973C17.2778 9.47344 14.7854 7.99884 12.2542 6.50931V15.4367Z" fill="white"/>
</svg>
