<svg width="50" height="51" viewBox="0 0 50 51" fill="none" xmlns="http://www.w3.org/2000/svg">
<rect y="0.5" width="50" height="50" rx="25" fill="#FF7500"/>
<path d="M19.0511 34.5V32.2159L25.1108 26.2756C25.6903 25.6903 26.1733 25.1705 26.5597 24.7159C26.946 24.2614 27.2358 23.821 27.429 23.3949C27.6222 22.9687 27.7188 22.5142 27.7188 22.0312C27.7188 21.4801 27.5938 21.0085 27.3438 20.6165C27.0938 20.2188 26.75 19.9119 26.3125 19.696C25.875 19.4801 25.3778 19.3722 24.821 19.3722C24.2472 19.3722 23.7443 19.4915 23.3125 19.7301C22.8807 19.9631 22.5455 20.2955 22.3068 20.7273C22.0739 21.1591 21.9574 21.6733 21.9574 22.2699H18.9489C18.9489 21.1619 19.2017 20.1989 19.7074 19.3807C20.2131 18.5625 20.9091 17.929 21.7955 17.4801C22.6875 17.0312 23.7102 16.8068 24.8636 16.8068C26.0341 16.8068 27.0625 17.0256 27.9489 17.4631C28.8352 17.9006 29.5227 18.5 30.0114 19.2614C30.5057 20.0227 30.7528 20.892 30.7528 21.8693C30.7528 22.5227 30.6278 23.1648 30.3778 23.7955C30.1278 24.4261 29.6875 25.125 29.0568 25.892C28.4318 26.6591 27.554 27.5881 26.4233 28.679L23.4148 31.7386V31.858H31.017V34.5H19.0511Z" fill="white"/>
</svg>
