<svg width="50" height="51" viewBox="0 0 50 51" fill="none" xmlns="http://www.w3.org/2000/svg">
<rect y="0.5" width="50" height="50" rx="25" fill="#FF7500"/>
<path d="M24.8153 34.7386C23.5881 34.7386 22.4972 34.5284 21.5426 34.108C20.5938 33.6875 19.8438 33.1023 19.2926 32.3523C18.7415 31.6023 18.4489 30.7358 18.4148 29.7528H21.6193C21.6477 30.2244 21.804 30.6364 22.0881 30.9886C22.3722 31.3352 22.75 31.6051 23.2216 31.7983C23.6932 31.9915 24.2216 32.0881 24.8068 32.0881C25.4318 32.0881 25.9858 31.9801 26.4688 31.7642C26.9517 31.5426 27.3295 31.2358 27.6023 30.8438C27.875 30.4517 28.0085 30 28.0028 29.4886C28.0085 28.9602 27.8722 28.4943 27.5938 28.0909C27.3153 27.6875 26.9119 27.3722 26.3835 27.1449C25.8608 26.9176 25.2301 26.804 24.4915 26.804H22.9489V24.3665H24.4915C25.0994 24.3665 25.6307 24.2614 26.0852 24.0511C26.5455 23.8409 26.9063 23.5455 27.1676 23.1648C27.429 22.7784 27.5568 22.3324 27.5511 21.8267C27.5568 21.3324 27.446 20.9034 27.2188 20.5398C26.9972 20.1705 26.6818 19.8835 26.2727 19.679C25.8693 19.4744 25.3949 19.3722 24.8494 19.3722C24.3153 19.3722 23.821 19.4687 23.3665 19.6619C22.9119 19.8551 22.5455 20.1307 22.267 20.4886C21.9886 20.8409 21.8409 21.2614 21.8239 21.75H18.7812C18.804 20.7727 19.0852 19.9148 19.625 19.1761C20.1705 18.4318 20.8977 17.8523 21.8068 17.4375C22.7159 17.017 23.7358 16.8068 24.8665 16.8068C26.0313 16.8068 27.0426 17.0256 27.9006 17.4631C28.7642 17.8949 29.4318 18.4773 29.9034 19.2102C30.375 19.9432 30.6108 20.7528 30.6108 21.6392C30.6165 22.6222 30.3267 23.446 29.7415 24.1108C29.1619 24.7756 28.4006 25.2102 27.4574 25.4148V25.5511C28.6847 25.7216 29.625 26.1761 30.2784 26.9148C30.9375 27.6477 31.2642 28.5597 31.2585 29.6506C31.2585 30.6278 30.9801 31.5028 30.4233 32.2756C29.8722 33.0426 29.1108 33.6449 28.1392 34.0824C27.1733 34.5199 26.0653 34.7386 24.8153 34.7386Z" fill="white"/>
</svg>
