<svg width="101" height="41" viewBox="0 0 101 41" fill="none" xmlns="http://www.w3.org/2000/svg">
<path d="M10.692 5.026V7.42H6.93V17.5H4.122V7.42H0.36V5.026H10.692ZM12.3166 17.5V3.964L14.9986 3.532V8.068C15.1786 8.008 15.4066 7.954 15.6826 7.906C15.9706 7.846 16.2466 7.816 16.5106 7.816C17.2786 7.816 17.9146 7.924 18.4186 8.14C18.9346 8.344 19.3426 8.638 19.6426 9.022C19.9546 9.406 20.1706 9.862 20.2906 10.39C20.4226 10.918 20.4886 11.506 20.4886 12.154V17.5H17.8066V12.478C17.8066 11.614 17.6926 11.002 17.4646 10.642C17.2486 10.282 16.8406 10.102 16.2406 10.102C16.0006 10.102 15.7726 10.126 15.5566 10.174C15.3526 10.21 15.1666 10.252 14.9986 10.3V17.5H12.3166ZM22.4663 12.838C22.4663 11.998 22.5923 11.266 22.8442 10.642C23.1083 10.006 23.4503 9.478 23.8703 9.058C24.2903 8.638 24.7703 8.32 25.3103 8.104C25.8623 7.888 26.4263 7.78 27.0023 7.78C28.3463 7.78 29.4083 8.194 30.1883 9.022C30.9683 9.838 31.3583 11.044 31.3583 12.64C31.3583 12.796 31.3523 12.97 31.3403 13.162C31.3283 13.342 31.3163 13.504 31.3043 13.648H25.2203C25.2803 14.2 25.5383 14.638 25.9943 14.962C26.4503 15.286 27.0623 15.448 27.8303 15.448C28.3223 15.448 28.8023 15.406 29.2703 15.322C29.7503 15.226 30.1403 15.112 30.4403 14.98L30.8003 17.158C30.6563 17.23 30.4643 17.302 30.2243 17.374C29.9843 17.446 29.7143 17.506 29.4143 17.554C29.1263 17.614 28.8143 17.662 28.4783 17.698C28.1423 17.734 27.8063 17.752 27.4703 17.752C26.6183 17.752 25.8743 17.626 25.2383 17.374C24.6143 17.122 24.0923 16.78 23.6723 16.348C23.2643 15.904 22.9583 15.382 22.7543 14.782C22.5623 14.182 22.4663 13.534 22.4663 12.838ZM28.7663 11.812C28.7543 11.584 28.7123 11.362 28.6403 11.146C28.5803 10.93 28.4783 10.738 28.3343 10.57C28.2023 10.402 28.0283 10.264 27.8123 10.156C27.6083 10.048 27.3503 9.994 27.0383 9.994C26.7383 9.994 26.4803 10.048 26.2643 10.156C26.0483 10.252 25.8683 10.384 25.7243 10.552C25.5803 10.72 25.4663 10.918 25.3823 11.146C25.3103 11.362 25.2563 11.584 25.2203 11.812H28.7663ZM5.598 37.662C4.914 37.662 4.23 37.638 3.546 37.59C2.874 37.554 2.172 37.458 1.44 37.302V25.206C2.016 25.098 2.646 25.02 3.33 24.972C4.014 24.912 4.65 24.882 5.238 24.882C6.03 24.882 6.756 24.942 7.416 25.062C8.088 25.17 8.664 25.362 9.144 25.638C9.624 25.914 9.996 26.28 10.26 26.736C10.536 27.18 10.674 27.732 10.674 28.392C10.674 29.388 10.194 30.174 9.234 30.75C10.026 31.05 10.566 31.458 10.854 31.974C11.142 32.49 11.286 33.072 11.286 33.72C11.286 35.028 10.806 36.012 9.846 36.672C8.898 37.332 7.482 37.662 5.598 37.662ZM4.176 32.064V35.286C4.38 35.31 4.602 35.328 4.842 35.34C5.082 35.352 5.346 35.358 5.634 35.358C6.474 35.358 7.152 35.238 7.668 34.998C8.184 34.758 8.442 34.314 8.442 33.666C8.442 33.09 8.226 32.682 7.794 32.442C7.362 32.19 6.744 32.064 5.94 32.064H4.176ZM4.176 29.922H5.544C6.408 29.922 7.026 29.814 7.398 29.598C7.77 29.37 7.956 29.01 7.956 28.518C7.956 28.014 7.764 27.66 7.38 27.456C6.996 27.252 6.432 27.15 5.688 27.15C5.448 27.15 5.19 27.156 4.914 27.168C4.638 27.168 4.392 27.18 4.176 27.204V29.922ZM19.0598 30.408C18.8198 30.348 18.5378 30.288 18.2138 30.228C17.8898 30.156 17.5418 30.12 17.1698 30.12C17.0018 30.12 16.7978 30.138 16.5578 30.174C16.3298 30.198 16.1558 30.228 16.0358 30.264V37.5H13.3538V28.536C13.8338 28.368 14.3978 28.212 15.0458 28.068C15.7058 27.912 16.4378 27.834 17.2418 27.834C17.3858 27.834 17.5598 27.846 17.7638 27.87C17.9678 27.882 18.1718 27.906 18.3758 27.942C18.5798 27.966 18.7838 28.002 18.9878 28.05C19.1918 28.086 19.3658 28.134 19.5098 28.194L19.0598 30.408ZM20.3217 32.838C20.3217 31.998 20.4477 31.266 20.6997 30.642C20.9637 30.006 21.3057 29.478 21.7257 29.058C22.1457 28.638 22.6257 28.32 23.1657 28.104C23.7177 27.888 24.2817 27.78 24.8577 27.78C26.2017 27.78 27.2637 28.194 28.0437 29.022C28.8237 29.838 29.2137 31.044 29.2137 32.64C29.2137 32.796 29.2077 32.97 29.1957 33.162C29.1837 33.342 29.1717 33.504 29.1597 33.648H23.0757C23.1357 34.2 23.3937 34.638 23.8497 34.962C24.3057 35.286 24.9177 35.448 25.6857 35.448C26.1777 35.448 26.6577 35.406 27.1257 35.322C27.6057 35.226 27.9957 35.112 28.2957 34.98L28.6557 37.158C28.5117 37.23 28.3197 37.302 28.0797 37.374C27.8397 37.446 27.5697 37.506 27.2697 37.554C26.9817 37.614 26.6697 37.662 26.3337 37.698C25.9977 37.734 25.6617 37.752 25.3257 37.752C24.4737 37.752 23.7297 37.626 23.0937 37.374C22.4697 37.122 21.9477 36.78 21.5277 36.348C21.1197 35.904 20.8137 35.382 20.6097 34.782C20.4177 34.182 20.3217 33.534 20.3217 32.838ZM26.6217 31.812C26.6097 31.584 26.5677 31.362 26.4957 31.146C26.4357 30.93 26.3337 30.738 26.1897 30.57C26.0577 30.402 25.8837 30.264 25.6677 30.156C25.4637 30.048 25.2057 29.994 24.8937 29.994C24.5937 29.994 24.3357 30.048 24.1197 30.156C23.9037 30.252 23.7237 30.384 23.5797 30.552C23.4357 30.72 23.3217 30.918 23.2377 31.146C23.1657 31.362 23.1117 31.584 23.0757 31.812H26.6217ZM34.9014 35.628C35.1654 35.628 35.4174 35.622 35.6574 35.61C35.8974 35.598 36.0894 35.58 36.2334 35.556V33.522C36.1254 33.498 35.9634 33.474 35.7474 33.45C35.5314 33.426 35.3334 33.414 35.1534 33.414C34.9014 33.414 34.6614 33.432 34.4334 33.468C34.2174 33.492 34.0254 33.546 33.8574 33.63C33.6894 33.714 33.5574 33.828 33.4614 33.972C33.3654 34.116 33.3174 34.296 33.3174 34.512C33.3174 34.932 33.4554 35.226 33.7314 35.394C34.0194 35.55 34.4094 35.628 34.9014 35.628ZM34.6854 27.78C35.4774 27.78 36.1374 27.87 36.6654 28.05C37.1934 28.23 37.6134 28.488 37.9254 28.824C38.2494 29.16 38.4774 29.568 38.6094 30.048C38.7414 30.528 38.8074 31.062 38.8074 31.65V37.23C38.4234 37.314 37.8894 37.41 37.2054 37.518C36.5214 37.638 35.6934 37.698 34.7214 37.698C34.1094 37.698 33.5514 37.644 33.0474 37.536C32.5554 37.428 32.1294 37.254 31.7694 37.014C31.4094 36.762 31.1334 36.438 30.9414 36.042C30.7494 35.646 30.6534 35.16 30.6534 34.584C30.6534 34.032 30.7614 33.564 30.9774 33.18C31.2054 32.796 31.5054 32.49 31.8774 32.262C32.2494 32.034 32.6754 31.872 33.1554 31.776C33.6354 31.668 34.1334 31.614 34.6494 31.614C34.9974 31.614 35.3034 31.632 35.5674 31.668C35.8434 31.692 36.0654 31.728 36.2334 31.776V31.524C36.2334 31.068 36.0954 30.702 35.8194 30.426C35.5434 30.15 35.0634 30.012 34.3794 30.012C33.9234 30.012 33.4734 30.048 33.0294 30.12C32.5854 30.18 32.2014 30.27 31.8774 30.39L31.5354 28.23C31.6914 28.182 31.8834 28.134 32.1114 28.086C32.3514 28.026 32.6094 27.978 32.8854 27.942C33.1614 27.894 33.4494 27.858 33.7494 27.834C34.0614 27.798 34.3734 27.78 34.6854 27.78ZM43.9147 31.452C44.1787 31.164 44.4487 30.864 44.7247 30.552C45.0127 30.24 45.2887 29.934 45.5527 29.634C45.8167 29.322 46.0627 29.028 46.2907 28.752C46.5307 28.476 46.7347 28.236 46.9027 28.032H50.0887C49.4527 28.764 48.8287 29.466 48.2167 30.138C47.6167 30.798 46.9567 31.482 46.2367 32.19C46.5967 32.514 46.9687 32.904 47.3527 33.36C47.7367 33.804 48.1087 34.266 48.4687 34.746C48.8287 35.226 49.1587 35.706 49.4587 36.186C49.7587 36.666 50.0107 37.104 50.2147 37.5H47.1367C46.9447 37.188 46.7227 36.846 46.4707 36.474C46.2307 36.09 45.9727 35.712 45.6967 35.34C45.4207 34.956 45.1267 34.59 44.8147 34.242C44.5147 33.894 44.2147 33.6 43.9147 33.36V37.5H41.2327V23.964L43.9147 23.532V31.452ZM53.2921 32.694C53.2921 33.522 53.4781 34.188 53.8501 34.692C54.2221 35.196 54.7741 35.448 55.5061 35.448C55.7461 35.448 55.9681 35.442 56.1721 35.43C56.3761 35.406 56.5441 35.382 56.6761 35.358V30.48C56.5081 30.372 56.2861 30.282 56.0101 30.21C55.7461 30.138 55.4761 30.102 55.2001 30.102C53.9281 30.102 53.2921 30.966 53.2921 32.694ZM59.3581 37.194C59.1181 37.266 58.8421 37.338 58.5301 37.41C58.2181 37.47 57.8881 37.524 57.5401 37.572C57.2041 37.62 56.8561 37.656 56.4961 37.68C56.1481 37.716 55.8121 37.734 55.4881 37.734C54.7081 37.734 54.0121 37.62 53.4001 37.392C52.7881 37.164 52.2721 36.84 51.8521 36.42C51.4321 35.988 51.1081 35.472 50.8801 34.872C50.6641 34.26 50.5561 33.576 50.5561 32.82C50.5561 32.052 50.6521 31.362 50.8441 30.75C51.0361 30.126 51.3121 29.598 51.6721 29.166C52.0321 28.734 52.4701 28.404 52.9861 28.176C53.5141 27.948 54.1141 27.834 54.7861 27.834C55.1581 27.834 55.4881 27.87 55.7761 27.942C56.0761 28.014 56.3761 28.116 56.6761 28.248V23.964L59.3581 23.532V37.194ZM65.4874 35.628C65.7514 35.628 66.0034 35.622 66.2434 35.61C66.4834 35.598 66.6754 35.58 66.8194 35.556V33.522C66.7114 33.498 66.5494 33.474 66.3334 33.45C66.1174 33.426 65.9194 33.414 65.7394 33.414C65.4874 33.414 65.2474 33.432 65.0194 33.468C64.8034 33.492 64.6114 33.546 64.4434 33.63C64.2754 33.714 64.1434 33.828 64.0474 33.972C63.9514 34.116 63.9034 34.296 63.9034 34.512C63.9034 34.932 64.0414 35.226 64.3174 35.394C64.6054 35.55 64.9954 35.628 65.4874 35.628ZM65.2714 27.78C66.0634 27.78 66.7234 27.87 67.2514 28.05C67.7794 28.23 68.1994 28.488 68.5114 28.824C68.8354 29.16 69.0634 29.568 69.1954 30.048C69.3274 30.528 69.3934 31.062 69.3934 31.65V37.23C69.0094 37.314 68.4754 37.41 67.7914 37.518C67.1074 37.638 66.2794 37.698 65.3074 37.698C64.6954 37.698 64.1374 37.644 63.6334 37.536C63.1414 37.428 62.7154 37.254 62.3554 37.014C61.9954 36.762 61.7194 36.438 61.5274 36.042C61.3354 35.646 61.2394 35.16 61.2394 34.584C61.2394 34.032 61.3474 33.564 61.5634 33.18C61.7914 32.796 62.0914 32.49 62.4634 32.262C62.8354 32.034 63.2614 31.872 63.7414 31.776C64.2214 31.668 64.7194 31.614 65.2354 31.614C65.5834 31.614 65.8894 31.632 66.1534 31.668C66.4294 31.692 66.6514 31.728 66.8194 31.776V31.524C66.8194 31.068 66.6814 30.702 66.4054 30.426C66.1294 30.15 65.6494 30.012 64.9654 30.012C64.5094 30.012 64.0594 30.048 63.6154 30.12C63.1714 30.18 62.7874 30.27 62.4634 30.39L62.1214 28.23C62.2774 28.182 62.4694 28.134 62.6974 28.086C62.9374 28.026 63.1954 27.978 63.4714 27.942C63.7474 27.894 64.0354 27.858 64.3354 27.834C64.6474 27.798 64.9594 27.78 65.2714 27.78ZM71.8186 28.356C72.2746 28.224 72.8626 28.104 73.5826 27.996C74.3026 27.876 75.0586 27.816 75.8506 27.816C76.6546 27.816 77.3206 27.924 77.8486 28.14C78.3886 28.344 78.8146 28.638 79.1266 29.022C79.4386 29.406 79.6606 29.862 79.7926 30.39C79.9246 30.918 79.9906 31.506 79.9906 32.154V37.5H77.3086V32.478C77.3086 31.614 77.1946 31.002 76.9666 30.642C76.7386 30.282 76.3126 30.102 75.6886 30.102C75.4966 30.102 75.2926 30.114 75.0766 30.138C74.8606 30.15 74.6686 30.168 74.5006 30.192V37.5H71.8186V28.356ZM81.9682 32.766C81.9682 32.082 82.0762 31.44 82.2922 30.84C82.5202 30.228 82.8442 29.7 83.2642 29.256C83.6842 28.8 84.1942 28.44 84.7942 28.176C85.3942 27.912 86.0782 27.78 86.8462 27.78C87.3502 27.78 87.8122 27.828 88.2322 27.924C88.6522 28.008 89.0602 28.134 89.4562 28.302L88.8982 30.444C88.6462 30.348 88.3702 30.264 88.0702 30.192C87.7702 30.12 87.4342 30.084 87.0622 30.084C86.2702 30.084 85.6762 30.33 85.2802 30.822C84.8962 31.314 84.7042 31.962 84.7042 32.766C84.7042 33.618 84.8842 34.278 85.2442 34.746C85.6162 35.214 86.2582 35.448 87.1702 35.448C87.4942 35.448 87.8422 35.418 88.2142 35.358C88.5862 35.298 88.9282 35.202 89.2402 35.07L89.6182 37.266C89.3062 37.398 88.9162 37.512 88.4482 37.608C87.9802 37.704 87.4642 37.752 86.9002 37.752C86.0362 37.752 85.2922 37.626 84.6682 37.374C84.0442 37.11 83.5282 36.756 83.1202 36.312C82.7242 35.868 82.4302 35.346 82.2382 34.746C82.0582 34.134 81.9682 33.474 81.9682 32.766ZM90.5112 32.838C90.5112 31.998 90.6372 31.266 90.8892 30.642C91.1532 30.006 91.4952 29.478 91.9152 29.058C92.3352 28.638 92.8152 28.32 93.3552 28.104C93.9072 27.888 94.4712 27.78 95.0472 27.78C96.3912 27.78 97.4532 28.194 98.2332 29.022C99.0132 29.838 99.4032 31.044 99.4032 32.64C99.4032 32.796 99.3972 32.97 99.3852 33.162C99.3732 33.342 99.3612 33.504 99.3492 33.648H93.2652C93.3252 34.2 93.5832 34.638 94.0392 34.962C94.4952 35.286 95.1072 35.448 95.8752 35.448C96.3672 35.448 96.8472 35.406 97.3152 35.322C97.7952 35.226 98.1852 35.112 98.4852 34.98L98.8452 37.158C98.7012 37.23 98.5092 37.302 98.2692 37.374C98.0292 37.446 97.7592 37.506 97.4592 37.554C97.1712 37.614 96.8592 37.662 96.5232 37.698C96.1872 37.734 95.8512 37.752 95.5152 37.752C94.6632 37.752 93.9192 37.626 93.2832 37.374C92.6592 37.122 92.1372 36.78 91.7172 36.348C91.3092 35.904 91.0032 35.382 90.7992 34.782C90.6072 34.182 90.5112 33.534 90.5112 32.838ZM96.8112 31.812C96.7992 31.584 96.7572 31.362 96.6852 31.146C96.6252 30.93 96.5232 30.738 96.3792 30.57C96.2472 30.402 96.0732 30.264 95.8572 30.156C95.6532 30.048 95.3952 29.994 95.0832 29.994C94.7832 29.994 94.5252 30.048 94.3092 30.156C94.0932 30.252 93.9132 30.384 93.7692 30.552C93.6252 30.72 93.5112 30.918 93.4272 31.146C93.3552 31.362 93.3012 31.584 93.2652 31.812H96.8112Z" fill="white"/>
<path d="M41 11.5C40.4477 11.5 40 11.9477 40 12.5C40 13.0523 40.4477 13.5 41 13.5L41 11.5ZM49.6667 12.5C49.6667 15.4455 52.0545 17.8333 55 17.8333C57.9455 17.8333 60.3333 15.4455 60.3333 12.5C60.3333 9.55448 57.9455 7.16667 55 7.16667C52.0545 7.16667 49.6667 9.55448 49.6667 12.5ZM41 13.5L55 13.5L55 11.5L41 11.5L41 13.5Z" fill="white"/>
</svg>
